# xmcd
# 
# Track frame offsets:
#     183
#     21283
#     23005
#     42530
#     59848
#     75955
#     87920
#     106763
#     116148
#     121585
#     133515
#     147935
#     160665
#     183158
#     185440
# 
# Disc length: 2694
# 
# Revision: 6
# Processed by: cddbd v1.5.2PL0 Copyright (c) Steve Scherf et al.
# Submitted via: BonkEnc v1.0.15
# 
DISCID=bd0a840f
DTITLE=Camel - Nude (810_880-2)
DYEAR=1981
DGENRE=Progressive Rock
TTITLE0=City Life
TTITLE1=Nude
TTITLE2=Drafted
TTITLE3=Docks
TTITLE4=Beached
TTITLE5=Landscapes
TTITLE6=Changing Places
TTITLE7=Pomp and Circumstance
TTITLE8=Please Come Home
TTITLE9=Reflections
TTITLE10=Captured
TTITLE11=The Homecoming
TTITLE12=Lies
TTITLE13=The Last Farewell: The Birthday Cake
TTITLE14=The Last Farewell: Nude's Return
EXTD=YEAR: 1981 ID3G: 92
EXTT0=
EXTT1=
EXTT2=
EXTT3=
EXTT4=
EXTT5=
EXTT6=
EXTT7=
EXTT8=
EXTT9=
EXTT10=
EXTT11=
EXTT12=
EXTT13=
EXTT14=
PLAYORDER=
